<svg width="512" height="512" viewBox="0 0 512 512" fill="none" xmlns="http://www.w3.org/2000/svg">
<rect width="512" height="512" fill="url(#paint0_linear_246_529)"/>
<path d="M212.913 318.624H263.264C263.069 320.92 262.958 323.244 262.958 325.582C262.958 342.296 269.318 358.439 280.66 374.123C273.145 387.469 264.558 395.151 255.999 395.151C239.341 395.151 222.599 366.01 213.721 322.729L212.913 318.624ZM209.713 297.749H268.163C275.009 280.278 288.014 265.917 304.722 257.376V256.013C304.722 246.466 304.36 237.156 303.664 228.179H208.335L207.876 234.971C206.666 255.91 207.281 276.916 209.713 297.749ZM339.499 249.04C360.973 249.04 380.373 257.877 394.262 272.114C395.956 257.458 395.331 242.627 392.411 228.165H324.636L325.165 237.309C325.374 241.595 325.499 245.937 325.569 250.307C330.078 249.472 334.754 249.04 339.499 249.04ZM131.668 318.638H191.593C196.659 347.612 205.273 372.272 216.532 389.515C181.149 379.014 151.366 354.926 133.7 322.52L131.668 318.638ZM119.602 228.165H187.376C185.92 248.65 186.074 269.217 187.836 289.677L188.629 297.749H123.179C116.129 275.229 114.908 251.291 119.602 228.165ZM296.97 124.862L295.467 122.496C316.152 128.635 335.132 139.488 350.914 154.201C366.697 168.914 378.853 187.086 386.426 207.29H322.549C318.151 173.668 309.231 144.777 296.97 124.862ZM214.834 123.011L216.532 122.496C204.271 141.284 195.156 168.825 190.313 201.167L189.45 207.29H125.6C133.066 187.366 144.989 169.413 160.458 154.803C175.926 140.194 194.53 129.314 214.848 122.997L214.834 123.011ZM255.999 116.86C274.356 116.86 292.823 152.236 300.728 202.907L301.382 207.29H210.617C218.146 154.282 237.128 116.86 255.999 116.86Z" fill="black"/>
<path d="M402.125 325.584C402.125 308.975 395.527 293.046 383.783 281.301C372.038 269.557 356.109 262.959 339.5 262.959C322.891 262.959 306.962 269.557 295.217 281.301C283.473 293.046 276.875 308.975 276.875 325.584C276.875 351.511 296.637 378.676 335.325 407.692C336.529 408.596 337.994 409.084 339.5 409.084C341.006 409.084 342.471 408.596 343.675 407.692C382.363 378.676 402.125 351.511 402.125 325.584ZM318.625 325.584C318.625 320.048 320.824 314.738 324.739 310.823C328.654 306.908 333.964 304.709 339.5 304.709C345.036 304.709 350.346 306.908 354.261 310.823C358.176 314.738 360.375 320.048 360.375 325.584C360.375 331.12 358.176 336.43 354.261 340.345C350.346 344.26 345.036 346.459 339.5 346.459C333.964 346.459 328.654 344.26 324.739 340.345C320.824 336.43 318.625 331.12 318.625 325.584Z" fill="black"/>
<defs>
<linearGradient id="paint0_linear_246_529" x1="256" y1="0" x2="256" y2="512" gradientUnits="userSpaceOnUse">
<stop stop-color="#B2FF4D"/>
<stop offset="1" stop-color="#73AB2B"/>
</linearGradient>
</defs>
</svg>
