<svg width="192" height="192" viewBox="0 0 192 192" fill="none" xmlns="http://www.w3.org/2000/svg">
<rect width="192" height="192" fill="url(#paint0_linear_246_525)"/>
<path d="M80.7777 118.125H98.5662C98.4974 118.936 98.4581 119.757 98.4581 120.583C98.4581 126.488 100.705 132.191 104.712 137.732C102.057 142.447 99.0235 145.161 95.9997 145.161C90.1145 145.161 84.1997 134.866 81.0629 119.575L80.7777 118.125ZM79.6469 110.75H100.297C102.716 104.577 107.31 99.5037 113.213 96.4864V96.0045C113.213 92.6317 113.085 89.3424 112.839 86.1712H79.1601L78.9979 88.5705C78.5707 95.9684 78.7878 103.389 79.6469 110.75ZM125.5 93.5413C133.086 93.5413 139.94 96.6634 144.847 101.693C145.445 96.5153 145.225 91.2754 144.193 86.1663H120.249L120.436 89.3965C120.509 90.9109 120.554 92.4449 120.578 93.9887C122.171 93.6937 123.823 93.5413 125.5 93.5413ZM52.0742 118.13H73.2454C75.0351 128.366 78.0785 137.078 82.0561 143.17C69.5556 139.46 59.0335 130.95 52.7921 119.501L52.0742 118.13ZM47.8115 86.1663H71.7556C71.2413 93.4033 71.2955 100.669 71.9179 107.898L72.1981 110.75H49.0751C46.5845 102.793 46.1531 94.3365 47.8115 86.1663ZM110.474 49.6699L109.943 48.834C117.251 51.003 123.957 54.8371 129.533 60.0351C135.108 65.2331 139.403 71.6533 142.079 78.7913H119.511C117.958 66.9126 114.806 56.7056 110.474 49.6699ZM81.4562 49.0159L82.0561 48.834C77.7245 55.4715 74.5041 65.2016 72.7931 76.6279L72.4882 78.7913H49.9306C52.5683 71.7522 56.7806 65.4095 62.2455 60.248C67.7103 55.0865 74.2831 51.2429 81.4611 49.011L81.4562 49.0159ZM95.9997 46.8428C102.485 46.8428 109.009 59.3409 111.802 77.2425L112.033 78.7913H79.9665C82.6264 60.0637 89.3327 46.8428 95.9997 46.8428Z" fill="black"/>
<path d="M147.625 120.583C147.625 114.716 145.294 109.088 141.145 104.939C136.995 100.79 131.368 98.4585 125.5 98.4585C119.632 98.4585 114.005 100.79 109.855 104.939C105.706 109.088 103.375 114.716 103.375 120.583C103.375 129.743 110.357 139.341 124.025 149.592C124.451 149.911 124.968 150.083 125.5 150.083C126.032 150.083 126.549 149.911 126.975 149.592C140.643 139.341 147.625 129.743 147.625 120.583ZM118.125 120.583C118.125 118.628 118.902 116.752 120.285 115.369C121.668 113.986 123.544 113.208 125.5 113.208C127.456 113.208 129.332 113.986 130.715 115.369C132.098 116.752 132.875 118.628 132.875 120.583C132.875 122.539 132.098 124.415 130.715 125.798C129.332 127.181 127.456 127.958 125.5 127.958C123.544 127.958 121.668 127.181 120.285 125.798C118.902 124.415 118.125 122.539 118.125 120.583Z" fill="black"/>
<defs>
<linearGradient id="paint0_linear_246_525" x1="96" y1="0" x2="96" y2="192" gradientUnits="userSpaceOnUse">
<stop stop-color="#B2FF4D"/>
<stop offset="1" stop-color="#73AB2B"/>
</linearGradient>
</defs>
</svg>
